<svg width="143" height="120" viewBox="0 0 143 120" fill="none" xmlns="http://www.w3.org/2000/svg">
<g clip-path="url(#clip0_60_247)">
<path d="M92.1094 60.1762C99.1428 63.6021 106.078 67.1881 112.902 70.9258C116.58 72.9424 120.263 75.0197 123.247 77.8736C126.226 68.7439 126.914 59.3215 125.398 50.747C111.387 46.7009 96.7664 43.9538 81.7551 42.561C80.3773 47.5874 78.9693 52.6141 77.4628 58.1563C63.0322 54.8853 48.2865 52.3776 33.2223 50.909C33.6086 47.2453 33.4655 43.6373 32.7923 40.2188C23.5949 44.6531 14.4825 49.3332 5.46713 54.2548C13.2057 60.9323 21.0291 67.6587 30.4066 72.2014C30.712 69.2038 31.012 66.2107 31.5465 63.0948C49.6011 69.3631 67.6626 75.6319 85.7162 81.9006C88.0217 75.1341 90.3268 68.367 92.1094 60.1762Z" fill="#6E5B59"/>
<path d="M92.6424 52.7083C99.6758 56.1342 106.611 59.7202 113.435 63.4579C117.113 65.4745 120.796 67.5518 123.78 70.4057C126.759 61.276 127.447 51.8536 125.931 43.2791C111.92 39.233 97.2994 36.4859 82.2881 35.0931C80.9102 40.1195 79.5022 45.1462 77.9957 50.6884C63.5652 47.4174 48.8194 44.9097 33.7552 43.4411C34.1416 39.7774 33.9984 36.1694 33.3252 32.7509C24.1279 37.1852 15.0155 41.8653 6.00009 46.7869C13.7387 53.4644 21.5621 60.1908 30.9396 64.7335C31.2449 61.7359 31.5449 58.7428 32.0795 55.6269C50.1341 61.8952 68.1955 68.164 86.2491 74.4327C88.5547 67.6662 90.8597 60.8991 92.6424 52.7083Z" fill="#D75F54"/>
</g>
<defs>
<clipPath id="clip0_60_247">
<rect width="143" height="120" fill="white" transform="matrix(-1 0 0 1 143 0)"/>
</clipPath>
</defs>
</svg>
