<svg width="72" height="44" viewBox="0 0 72 44" fill="none" xmlns="http://www.w3.org/2000/svg">
<path d="M19.8 21.75C24.7624 21.75 28.8 17.6843 28.8 12.6875C28.8 7.69066 24.7624 3.625 19.8 3.625C14.8376 3.625 10.8 7.69066 10.8 12.6875C10.8 17.6843 14.8376 21.75 19.8 21.75ZM59.4 7.25H34.2C33.2055 7.25 32.4 8.06109 32.4 9.0625V25.375H7.2V1.8125C7.2 0.811094 6.3945 0 5.4 0H1.8C0.8055 0 0 0.811094 0 1.8125V41.6875C0 42.6889 0.8055 43.5 1.8 43.5H5.4C6.3945 43.5 7.2 42.6889 7.2 41.6875V36.25H64.8V41.6875C64.8 42.6889 65.6055 43.5 66.6 43.5H70.2C71.1945 43.5 72 42.6889 72 41.6875V19.9375C72 12.9299 66.3592 7.25 59.4 7.25Z" fill="#333333"/>
</svg>
