<svg width="85" height="85" viewBox="0 0 85 85" fill="none" xmlns="http://www.w3.org/2000/svg">
<g clip-path="url(#clip0_67_185)">
<path d="M24.8093 18.9302L15.6364 9.15516L10.6249 14.1666L19.8155 23.9416L24.8093 18.9302ZM15.052 38.9583H1.77075V46.0416H15.052V38.9583ZM46.927 0H39.8437V14.1666H46.927V0ZM76.7301 14.1666L71.7187 9.15516L61.9437 18.9302L66.9551 23.9416L76.7301 14.1666ZM61.9614 66.0697L71.7187 74.9594L76.7301 69.9479L66.9728 61.0583L61.9614 66.0697ZM71.7187 38.9583V46.0416H85.8853V38.9583H71.7187ZM43.3853 21.25C31.6447 21.25 22.1353 30.7593 22.1353 42.5C22.1353 54.2406 31.6447 63.75 43.3853 63.75C55.126 63.75 64.6353 54.2406 64.6353 42.5C64.6353 30.7593 55.126 21.25 43.3853 21.25ZM39.8437 84.1146H46.927V70.8333H39.8437V84.1146ZM10.6249 69.9479L15.6364 74.9594L24.827 66.0697L19.8155 61.0583L10.6249 69.9479Z" fill="white"/>
</g>
<defs>
<clipPath id="clip0_67_185">
<rect width="85" height="85" fill="white"/>
</clipPath>
</defs>
</svg>
