<svg width="394" height="269" viewBox="0 0 394 269" fill="none" xmlns="http://www.w3.org/2000/svg">
<path d="M393.795 243.707V25.2623C393.785 18.5652 391.121 12.1452 386.385 7.40962C381.649 2.67407 375.229 0.00947579 368.532 0H25.2623C18.5652 0.00947843 12.1452 2.67408 7.40964 7.40962C2.67409 12.1452 0.00947843 18.5652 0 25.2623V243.707C0.00947843 250.404 2.67409 256.824 7.40964 261.56C12.1452 266.295 18.5652 268.96 25.2623 268.969H368.532C375.229 268.96 381.649 266.295 386.385 261.56C391.121 256.824 393.785 250.404 393.795 243.707ZM25.2623 265.997C19.3528 265.99 13.6873 263.639 9.50864 259.461C5.32996 255.282 2.97924 249.616 2.97205 243.707V25.2623C2.97924 19.3528 5.32996 13.6873 9.50864 9.50864C13.6873 5.32996 19.3528 2.97921 25.2623 2.97202H368.532C374.442 2.97921 380.107 5.32996 384.286 9.50864C388.465 13.6873 390.815 19.3528 390.823 25.2623V243.707C390.815 249.616 388.465 255.282 384.286 259.461C380.107 263.639 374.442 265.99 368.532 265.997H25.2623Z" fill="#3F3D56"/>
<path d="M390.823 39.3033H2.97208C2.57796 39.3033 2.2 39.1467 1.92133 38.868C1.64265 38.5894 1.48608 38.2114 1.48608 37.8173C1.48608 37.4232 1.64265 37.0452 1.92133 36.7665C2.2 36.4879 2.57796 36.3313 2.97208 36.3313H390.823C391.217 36.3313 391.595 36.4879 391.873 36.7665C392.152 37.0452 392.309 37.4232 392.309 37.8173C392.309 38.2114 392.152 38.5894 391.873 38.868C391.595 39.1467 391.217 39.3033 390.823 39.3033Z" fill="#3F3D56"/>
<path d="M28.2344 28.2343C32.3379 28.2343 35.6645 24.9078 35.6645 20.8042C35.6645 16.7007 32.3379 13.3741 28.2344 13.3741C24.1309 13.3741 20.8043 16.7007 20.8043 20.8042C20.8043 24.9078 24.1309 28.2343 28.2344 28.2343Z" fill="#FFBC19"/>
<path d="M53.4966 28.2343C57.6001 28.2343 60.9267 24.9078 60.9267 20.8042C60.9267 16.7007 57.6001 13.3741 53.4966 13.3741C49.3931 13.3741 46.0665 16.7007 46.0665 20.8042C46.0665 24.9078 49.3931 28.2343 53.4966 28.2343Z" fill="#FFBC19"/>
<path d="M78.7589 28.2343C82.8625 28.2343 86.189 24.9078 86.189 20.8042C86.189 16.7007 82.8625 13.3741 78.7589 13.3741C74.6554 13.3741 71.3289 16.7007 71.3289 20.8042C71.3289 24.9078 74.6554 28.2343 78.7589 28.2343Z" fill="#FFBC19"/>
<path d="M134.287 199.232C134.156 199.232 134.026 199.206 133.904 199.156C133.783 199.105 133.673 199.032 133.58 198.939C133.487 198.846 133.413 198.736 133.363 198.614C133.313 198.493 133.287 198.363 133.287 198.232C133.287 187.805 128.716 181.989 121.342 175.985C121.24 175.902 121.155 175.8 121.092 175.684C121.029 175.568 120.99 175.442 120.976 175.311C120.963 175.18 120.975 175.048 121.013 174.922C121.05 174.795 121.113 174.678 121.196 174.576C121.279 174.474 121.381 174.389 121.497 174.327C121.613 174.265 121.74 174.226 121.871 174.213C122.001 174.199 122.134 174.212 122.26 174.25C122.385 174.288 122.503 174.35 122.604 174.434C130.435 180.809 135.287 187.014 135.287 198.232C135.287 198.363 135.261 198.493 135.211 198.614C135.161 198.736 135.087 198.846 134.994 198.939C134.901 199.032 134.791 199.105 134.67 199.156C134.548 199.206 134.418 199.232 134.287 199.232Z" fill="#CC1100"/>
<path d="M48.625 199.232C48.4937 199.232 48.3636 199.206 48.2423 199.156C48.1209 199.105 48.0107 199.032 47.9178 198.939C47.825 198.846 47.7513 198.736 47.701 198.614C47.6508 198.493 47.625 198.363 47.625 198.232C47.625 187.014 52.4775 180.809 60.3076 174.434C60.4094 174.35 60.5266 174.288 60.6526 174.25C60.7785 174.212 60.9107 174.199 61.0416 174.213C61.1725 174.226 61.2994 174.265 61.4153 174.327C61.5311 174.389 61.6334 174.474 61.7165 174.576C61.7995 174.678 61.8616 174.795 61.8993 174.922C61.9369 175.048 61.9492 175.18 61.9357 175.311C61.9221 175.442 61.8828 175.568 61.8201 175.684C61.7574 175.8 61.6725 175.902 61.5703 175.985C54.1958 181.989 49.625 187.806 49.625 198.232C49.625 198.363 49.5992 198.493 49.549 198.614C49.4987 198.736 49.425 198.846 49.3322 198.939C49.2393 199.032 49.1291 199.105 49.0077 199.156C48.8864 199.206 48.7563 199.232 48.625 199.232Z" fill="#CC1100"/>
<path d="M125.722 130.701C125.515 130.701 125.314 130.638 125.145 130.519C124.976 130.4 124.848 130.231 124.779 130.037C124.71 129.842 124.703 129.631 124.758 129.432C124.814 129.233 124.93 129.056 125.09 128.926C132.67 122.755 133.287 113.988 133.287 104.003C133.287 103.737 133.392 103.483 133.58 103.296C133.768 103.108 134.022 103.003 134.287 103.003C134.552 103.003 134.807 103.108 134.994 103.296C135.182 103.483 135.287 103.737 135.287 104.003C135.287 114.508 134.615 123.75 126.353 130.477C126.175 130.622 125.952 130.702 125.722 130.701Z" fill="#CC1100"/>
<path d="M57.1909 130.166C56.961 130.167 56.738 130.087 56.5601 129.942C48.2974 123.215 47.625 114.215 47.625 104.003C47.625 103.737 47.7304 103.483 47.9179 103.295C48.1054 103.108 48.3598 103.003 48.625 103.003C48.8902 103.003 49.1446 103.108 49.3321 103.295C49.5197 103.483 49.625 103.737 49.625 104.003C49.625 114.039 50.2285 122.208 57.8228 128.391C57.9829 128.521 58.0987 128.698 58.1543 128.897C58.2099 129.096 58.2026 129.307 58.1334 129.501C58.0642 129.696 57.9364 129.864 57.7676 129.983C57.5989 130.102 57.3974 130.166 57.1909 130.166Z" fill="#CC1100"/>
<path d="M147.137 152.152H125.721C125.456 152.152 125.202 152.047 125.014 151.859C124.827 151.672 124.721 151.417 124.721 151.152C124.721 150.887 124.827 150.633 125.014 150.445C125.202 150.257 125.456 150.152 125.721 150.152H147.137C147.402 150.152 147.656 150.257 147.844 150.445C148.031 150.633 148.137 150.887 148.137 151.152C148.137 151.417 148.031 151.672 147.844 151.859C147.656 152.047 147.402 152.152 147.137 152.152Z" fill="#CC1100"/>
<path d="M57.1914 152.152H35.7759C35.5107 152.152 35.2563 152.047 35.0688 151.859C34.8813 151.672 34.7759 151.417 34.7759 151.152C34.7759 150.887 34.8813 150.633 35.0688 150.445C35.2563 150.257 35.5107 150.152 35.7759 150.152H57.1914C57.4567 150.152 57.711 150.257 57.8986 150.445C58.0861 150.633 58.1914 150.887 58.1914 151.152C58.1914 151.417 58.0861 151.672 57.8986 151.859C57.711 152.047 57.4567 152.152 57.1914 152.152Z" fill="#CC1100"/>
<path d="M91.4561 194.948C91.3247 194.948 91.1947 194.923 91.0733 194.872C90.952 194.822 90.8417 194.749 90.7489 194.656C90.656 194.563 90.5823 194.453 90.5321 194.331C90.4819 194.21 90.456 194.08 90.4561 193.948V125.419C90.4561 125.153 90.5614 124.899 90.749 124.712C90.9365 124.524 91.1908 124.419 91.4561 124.419C91.7213 124.419 91.9756 124.524 92.1632 124.712C92.3507 124.899 92.4561 125.153 92.4561 125.419V193.948C92.4561 194.08 92.4302 194.21 92.38 194.331C92.3298 194.453 92.2561 194.563 92.1632 194.656C92.0704 194.749 91.9601 194.822 91.8388 194.872C91.7174 194.923 91.5874 194.948 91.4561 194.948Z" fill="#CC1100"/>
<path d="M91.4561 194.948C82.1066 194.938 73.1431 191.219 66.532 184.608C59.9209 177.996 56.2021 169.033 56.1915 159.683V133.966C56.1915 117.498 69.7042 107.267 91.4562 107.267C114.197 107.267 126.721 116.749 126.721 133.966V159.683C126.711 169.033 122.992 177.997 116.381 184.608C109.769 191.219 100.806 194.938 91.4561 194.948ZM91.4561 109.267C75.3751 109.267 58.1915 115.756 58.1915 133.966V159.683C58.1891 164.053 59.0478 168.381 60.7184 172.419C62.3891 176.457 64.8389 180.126 67.9281 183.217C71.0173 186.308 74.6852 188.76 78.7223 190.433C82.7593 192.105 87.0864 192.966 91.4564 192.966C95.8263 192.966 100.153 192.105 104.191 190.433C108.228 188.76 111.896 186.308 114.985 183.217C118.074 180.126 120.524 176.457 122.194 172.419C123.865 168.381 124.724 164.053 124.721 159.683V133.966C124.721 112.476 103.88 109.267 91.4561 109.267Z" fill="#CC1100"/>
<path d="M70.9595 113.441C70.7593 113.441 70.5638 113.381 70.3982 113.269C70.2325 113.157 70.1044 112.997 70.0303 112.811C69.4527 111.366 69.1188 109.834 69.042 108.28C69.0594 102.351 71.4186 96.6693 75.6058 92.4721C79.793 88.2749 85.4689 85.902 91.3975 85.8704H91.5122C97.4332 85.8986 103.104 88.263 107.291 92.4496C111.478 96.6361 113.843 102.306 113.872 108.227C113.82 109.674 113.512 111.1 112.961 112.438C112.859 112.682 112.665 112.875 112.421 112.976C112.177 113.076 111.903 113.077 111.659 112.976C111.415 112.876 111.22 112.683 111.118 112.44C111.015 112.196 111.013 111.922 111.112 111.677C111.569 110.569 111.826 109.388 111.873 108.19C111.837 102.804 109.679 97.65 105.867 93.8457C102.055 90.0414 96.8955 87.8943 91.5098 87.8704H91.3999C86.0081 87.8972 80.8448 90.0511 77.0324 93.864C73.22 97.6768 71.0667 102.84 71.0405 108.232C71.1114 109.549 71.3976 110.846 71.8877 112.07C71.948 112.222 71.9703 112.386 71.9527 112.548C71.935 112.711 71.8779 112.866 71.7864 113.001C71.6949 113.136 71.5717 113.247 71.4276 113.324C71.2835 113.401 71.1227 113.441 70.9595 113.441Z" fill="#CC1100"/>
<path d="M193.019 108.003H181.019C179.162 108.003 177.382 107.265 176.069 105.952C174.756 104.64 174.019 102.859 174.019 101.003C174.019 99.1462 174.756 97.3657 176.069 96.0529C177.382 94.7402 179.162 94.0027 181.019 94.0027H193.019C194.875 94.0027 196.656 94.7402 197.969 96.0529C199.281 97.3657 200.019 99.1462 200.019 101.003C200.019 102.859 199.281 104.64 197.969 105.952C196.656 107.265 194.875 108.003 193.019 108.003Z" fill="#CCCCCC"/>
<path d="M275.019 137.503H263.019C261.162 137.503 259.382 136.765 258.069 135.452C256.756 134.14 256.019 132.359 256.019 130.503C256.019 128.646 256.756 126.866 258.069 125.553C259.382 124.24 261.162 123.503 263.019 123.503H275.019C276.875 123.503 278.656 124.24 279.969 125.553C281.281 126.866 282.019 128.646 282.019 130.503C282.019 132.359 281.281 134.14 279.969 135.452C278.656 136.765 276.875 137.503 275.019 137.503Z" fill="#CCCCCC"/>
<path d="M313.019 137.503H301.019C299.162 137.503 297.382 136.765 296.069 135.452C294.756 134.14 294.019 132.359 294.019 130.503C294.019 128.646 294.756 126.866 296.069 125.553C297.382 124.24 299.162 123.503 301.019 123.503H313.019C314.875 123.503 316.656 124.24 317.969 125.553C319.281 126.866 320.019 128.646 320.019 130.503C320.019 132.359 319.281 134.14 317.969 135.452C316.656 136.765 314.875 137.503 313.019 137.503Z" fill="#CCCCCC"/>
<path d="M351.019 137.503H339.019C337.162 137.503 335.382 136.765 334.069 135.452C332.756 134.14 332.019 132.359 332.019 130.503C332.019 128.646 332.756 126.866 334.069 125.553C335.382 124.24 337.162 123.503 339.019 123.503H351.019C352.875 123.503 354.656 124.24 355.969 125.553C357.281 126.866 358.019 128.646 358.019 130.503C358.019 132.359 357.281 134.14 355.969 135.452C354.656 136.765 352.875 137.503 351.019 137.503Z" fill="#CCCCCC"/>
<path d="M276.019 108.503H220.019C218.162 108.503 216.382 107.765 215.069 106.452C213.756 105.14 213.019 103.359 213.019 101.503C213.019 99.6462 213.756 97.8657 215.069 96.5529C216.382 95.2402 218.162 94.5027 220.019 94.5027H276.019C277.875 94.5027 279.656 95.2402 280.969 96.5529C282.281 97.8657 283.019 99.6462 283.019 101.503C283.019 103.359 282.281 105.14 280.969 106.452C279.656 107.765 277.875 108.503 276.019 108.503Z" fill="#CCCCCC"/>
<path d="M237.019 136.503H181.019C179.162 136.503 177.382 135.765 176.069 134.452C174.756 133.14 174.019 131.359 174.019 129.503C174.019 127.646 174.756 125.866 176.069 124.553C177.382 123.24 179.162 122.503 181.019 122.503H237.019C238.875 122.503 240.656 123.24 241.969 124.553C243.281 125.866 244.019 127.646 244.019 129.503C244.019 131.359 243.281 133.14 241.969 134.452C240.656 135.765 238.875 136.503 237.019 136.503Z" fill="#CCCCCC"/>
<path d="M347.019 108.503H304.019C302.162 108.503 300.382 107.765 299.069 106.452C297.756 105.14 297.019 103.359 297.019 101.503C297.019 99.6462 297.756 97.8657 299.069 96.5529C300.382 95.2402 302.162 94.5027 304.019 94.5027H347.019C348.875 94.5027 350.656 95.2402 351.969 96.5529C353.281 97.8657 354.019 99.6462 354.019 101.503C354.019 103.359 353.281 105.14 351.969 106.452C350.656 107.765 348.875 108.503 347.019 108.503Z" fill="#CCCCCC"/>
<path d="M193.019 167.003H181.019C179.162 167.003 177.382 166.265 176.069 164.952C174.756 163.64 174.019 161.859 174.019 160.003C174.019 158.146 174.756 156.366 176.069 155.053C177.382 153.74 179.162 153.003 181.019 153.003H193.019C194.875 153.003 196.656 153.74 197.969 155.053C199.281 156.366 200.019 158.146 200.019 160.003C200.019 161.859 199.281 163.64 197.969 164.952C196.656 166.265 194.875 167.003 193.019 167.003Z" fill="#CCCCCC"/>
<path d="M276.019 167.503H220.019C218.162 167.503 216.382 166.765 215.069 165.452C213.756 164.14 213.019 162.359 213.019 160.503C213.019 158.646 213.756 156.866 215.069 155.553C216.382 154.24 218.162 153.503 220.019 153.503H276.019C277.875 153.503 279.656 154.24 280.969 155.553C282.281 156.866 283.019 158.646 283.019 160.503C283.019 162.359 282.281 164.14 280.969 165.452C279.656 166.765 277.875 167.503 276.019 167.503Z" fill="#CCCCCC"/>
<path d="M347.019 167.503H304.019C302.162 167.503 300.382 166.765 299.069 165.452C297.756 164.14 297.019 162.359 297.019 160.503C297.019 158.646 297.756 156.866 299.069 155.553C300.382 154.24 302.162 153.503 304.019 153.503H347.019C348.875 153.503 350.656 154.24 351.969 155.553C353.281 156.866 354.019 158.646 354.019 160.503C354.019 162.359 353.281 164.14 351.969 165.452C350.656 166.765 348.875 167.503 347.019 167.503Z" fill="#CCCCCC"/>
<path d="M328.019 191.003C328.021 189.147 328.759 187.368 330.071 186.055C331.384 184.743 333.163 184.005 335.019 184.003H347.019C348.875 184.003 350.656 184.74 351.969 186.053C353.281 187.366 354.019 189.146 354.019 191.003C354.019 192.859 353.281 194.64 351.969 195.952C350.656 197.265 348.875 198.003 347.019 198.003H335.019C333.163 198.001 331.384 197.262 330.071 195.95C328.759 194.638 328.021 192.859 328.019 191.003Z" fill="#CCCCCC"/>
<path d="M245.019 191.503C245.021 189.647 245.759 187.868 247.071 186.555C248.384 185.243 250.163 184.505 252.019 184.503H308.019C309.875 184.503 311.656 185.24 312.969 186.553C314.281 187.866 315.019 189.646 315.019 191.503C315.019 193.359 314.281 195.14 312.969 196.452C311.656 197.765 309.875 198.503 308.019 198.503H252.019C250.163 198.501 248.384 197.762 247.071 196.45C245.759 195.138 245.021 193.359 245.019 191.503Z" fill="#CCCCCC"/>
<path d="M174.019 191.503C174.021 189.647 174.759 187.868 176.071 186.555C177.384 185.243 179.163 184.505 181.019 184.503H224.019C225.875 184.503 227.656 185.24 228.969 186.553C230.281 187.866 231.019 189.646 231.019 191.503C231.019 193.359 230.281 195.14 228.969 196.452C227.656 197.765 225.875 198.503 224.019 198.503H181.019C179.163 198.501 177.384 197.762 176.071 196.45C174.759 195.138 174.021 193.359 174.019 191.503Z" fill="#CCCCCC"/>
</svg>
