<svg width="66" height="57" viewBox="0 0 66 57" fill="none" xmlns="http://www.w3.org/2000/svg">
<path d="M2.19319 0.00269802C1.57829 0.0459656 1.00476 0.328221 0.595368 0.78905C0.18597 1.24988 -0.0267644 1.85266 0.0026984 2.46837C0.0321612 3.08408 0.30148 3.6638 0.753009 4.08343C1.20454 4.50306 1.8024 4.72927 2.41861 4.71362H14.2097V11.0209C14.0455 11.5089 14.0455 12.0373 14.2097 12.5253V23.7321C6.24187 24.8832 0.0723519 31.767 0.0723519 40.0456C0.0723519 49.1232 7.48126 56.5292 16.556 56.5292C23.1044 56.5292 28.7693 52.6609 31.4248 47.1027H40.1014C40.1014 52.2777 44.3307 56.5292 49.5049 56.5292C53.8574 56.5292 57.5259 53.5073 58.5909 49.472H63.6422C64.2676 49.472 64.8673 49.2236 65.3094 48.7814C65.7516 48.3393 66 47.7396 66 47.1142C66 46.4889 65.7516 45.8892 65.3094 45.4471C64.8673 45.0049 64.2676 44.7565 63.6422 44.7565H58.5955C57.6676 41.2113 54.7306 38.4681 51.0782 37.8419L44.5685 24.8501C44.3738 24.4586 44.074 24.1291 43.7027 23.8984C43.3314 23.6676 42.9032 23.5448 42.4661 23.5435H18.9207V14.1401H33.0396C33.6649 14.1401 34.2647 13.8917 34.7068 13.4495C35.149 13.0073 35.3974 12.4076 35.3974 11.7823C35.3974 11.157 35.149 10.5573 34.7068 10.1151C34.2647 9.67295 33.6649 9.42455 33.0396 9.42455H18.9207V2.34896C18.9182 1.72427 18.6676 1.12615 18.2242 0.686155C17.7807 0.246158 17.1807 0.000315712 16.556 0.00269802H2.41861C2.34351 -0.000899341 2.26829 -0.000899341 2.19319 0.00269802ZM28.0481 28.2544H41.0215L46.0775 38.3572C44.1047 39.1402 42.4794 40.5757 41.4172 42.3918H32.8556C32.9665 41.6227 33.0396 40.8445 33.0396 40.0456C33.0396 35.4332 31.1202 31.2559 28.0481 28.2544ZM16.4502 28.259C16.5237 28.2625 16.5974 28.2625 16.671 28.259C23.1443 28.3209 28.3287 33.5513 28.3287 40.0456C28.3287 46.5786 23.0833 51.8183 16.556 51.8183C10.0286 51.8183 4.78788 46.5786 4.78788 40.0456C4.78788 33.5484 9.97273 28.3163 16.4502 28.259ZM16.5376 30.6283C11.4104 30.627 7.11448 34.9248 7.11574 40.0548C7.11448 45.1847 11.4104 49.4871 16.5376 49.4858C21.6648 49.4871 25.9607 45.1847 25.9594 40.0548C25.9607 34.9248 21.6648 30.627 16.5376 30.6283ZM16.5376 35.353C18.8077 35.3525 21.2399 37.7834 21.2393 40.0548C21.2399 42.3261 18.8077 44.7616 16.5376 44.7611C14.2675 44.7616 11.8353 42.3261 11.8359 40.0548C11.8353 37.7834 14.2675 35.3525 16.5376 35.353ZM49.0954 42.4332C49.4042 42.5007 49.7233 42.5054 50.0339 42.447C52.2176 42.6877 53.912 44.3642 54.1652 46.5461C54.0749 46.9148 54.0749 47.2999 54.1652 47.6686C53.8888 50.0231 51.9385 51.8183 49.5049 51.8183C46.878 51.8183 44.8124 49.7331 44.8124 47.1027C44.8124 44.6137 46.6707 42.6408 49.0954 42.4332ZM49.5049 44.7565C48.2179 44.7565 47.1586 45.8163 47.1586 47.1027C47.1586 48.3892 48.2179 49.472 49.5049 49.472C50.7918 49.472 51.8695 48.3892 51.8695 47.1027C51.8695 45.8163 50.7918 44.7565 49.5049 44.7565Z" fill="#161616"/>
</svg>
