<svg width="491" height="366" viewBox="0 0 491 366" fill="none" xmlns="http://www.w3.org/2000/svg">
<path fill-rule="evenodd" clip-rule="evenodd" d="M390.046 125.001C412.032 124.798 425.942 149.733 442.499 166.582C461.133 185.543 492.461 198.912 490.947 227.678C489.43 256.514 456.671 265.001 436.442 281.718C421.521 294.049 407.927 306.557 390.046 311.063C365.655 317.21 333.615 334.262 318.031 311.56C302.122 288.385 328.66 256.955 332.805 227.678C335.732 206.996 328.619 185.123 338.419 167.544C350.354 146.136 368.133 125.204 390.046 125.001Z" fill="#852221"/>
<g clip-path="url(#clip0_4_149)">
<path d="M229.877 168.504C237.991 168.504 244.569 161.088 244.569 151.94C244.569 142.792 237.991 135.377 229.877 135.377C221.762 135.377 215.184 142.792 215.184 151.94C215.184 161.088 221.762 168.504 229.877 168.504Z" fill="#FFCC00"/>
<path d="M69.39 21.7813V179.532C69.394 183.364 70.7462 187.038 73.1499 189.748C75.5536 192.458 78.8126 193.982 82.2119 193.987H448.178C451.577 193.982 454.836 192.458 457.24 189.748C459.644 187.038 460.996 183.364 461 179.532V21.7813C460.996 17.949 459.644 14.275 457.24 11.5651C454.836 8.8553 451.577 7.33088 448.178 7.32626H82.2119C78.8126 7.33087 75.5536 8.85529 73.1499 11.5651C70.7462 14.275 69.394 17.949 69.39 21.7813ZM70.5201 21.7813C70.5201 18.2855 71.7519 14.9329 73.9446 12.461C76.1372 9.98909 79.1111 8.60039 82.2119 8.60039H371.899C395.23 8.60039 417.606 19.0492 434.104 37.6483C450.601 56.2473 459.87 81.473 459.87 107.776V179.532C459.87 183.027 458.638 186.38 456.445 188.852C454.253 191.324 451.279 192.713 448.178 192.713H82.2119C79.1111 192.713 76.1372 191.324 73.9446 188.852C71.7519 186.38 70.5201 183.027 70.5201 179.532V21.7813Z" fill="#202026"/>
<path d="M73.762 354.851L81.9598 354.851L85.8595 319.203L73.7603 319.204L73.762 354.851Z" fill="#F5EBEB"/>
<path d="M73.321 363.774L98.5302 363.773V363.413C98.53 360.479 97.4962 357.666 95.6561 355.592C93.816 353.517 91.3203 352.352 88.7181 352.352H88.7175L84.1127 348.413L75.5212 352.352L73.3206 352.352L73.321 363.774Z" fill="#19181C"/>
<path d="M38.0017 354.851L46.1995 354.851L50.0992 319.203L38 319.204L38.0017 354.851Z" fill="#F5EBEB"/>
<path d="M37.561 363.774L62.7702 363.773V363.413C62.77 360.479 61.7362 357.666 59.8961 355.592C58.056 353.517 55.5603 352.352 52.9581 352.352H52.9575L48.3527 348.413L39.7612 352.352L37.5606 352.352L37.561 363.774Z" fill="#19181C"/>
<path d="M94.0212 159.899C94.0212 159.899 101.909 187.209 100.453 190.804C98.9969 194.398 96.513 191.598 98.9969 194.398C101.481 197.198 103.649 194.222 101.323 198.977C98.9968 203.732 95.4729 242.88 93.923 244.775C92.3731 246.67 90.2421 246.721 92.1356 248.562C94.0291 250.403 96.513 246.67 94.0291 250.403C91.5452 254.137 84.954 340.269 84.954 340.269H72.0782C72.0782 340.269 68.8713 336.102 70.6866 333.39C72.5019 330.678 70.5272 329.632 70.6866 327.821C70.846 326.011 70.2422 322.106 70.1301 320.325C70.018 318.543 67.842 276.101 73.0698 251.585L63.5369 204.902L51.9893 261.324C51.9893 261.324 57.3012 308.65 51.9893 323.864C51.9893 323.864 56.2719 327.885 54.3726 330.215C52.4733 332.544 50.8173 330.678 52.4733 332.544C54.1292 334.411 49.9894 340.945 49.9894 340.945L35.9139 340.012L27.9472 251.585C27.9472 251.585 26.6042 242.363 27.9472 240.783C29.2902 239.202 29.2902 244.803 29.2902 239.202V231.735C29.2902 231.735 30.0681 185.806 30.1718 183.102C30.2755 180.397 40.2111 160.795 40.2111 160.795L94.0212 159.899Z" fill="#AD251D"/>
<path d="M93.9037 65.5732V119.424C92.3617 124.639 91.5663 130.097 91.5473 135.593C91.5981 144.748 93.3838 155.298 93.3782 159.91C93.4019 160.522 93.3429 161.134 93.203 161.726C85.2973 187.559 43.4634 164.083 39.6603 161.885C39.4795 161.783 39.3834 161.726 39.3834 161.726L40.2085 132.79L40.0672 124.47L39.0896 67.3952L39.9655 66.6053L47.6395 59.7058L48.391 59.0306L50.6966 62.8211L71.2491 61.2284L79.0926 58.7821L81.5394 59.9033L92.5701 64.9616L93.9037 65.5732Z" fill="#E7B900"/>
<path d="M165.532 107.891L151.129 102.522L147.261 111.37L162.668 116.435C163.171 117.336 163.888 118.061 164.737 118.528C165.586 118.995 166.533 119.186 167.473 119.079C168.413 118.972 169.308 118.572 170.057 117.923C170.807 117.275 171.38 116.403 171.714 115.407C172.048 114.411 172.129 113.329 171.948 112.284C171.766 111.239 171.33 110.271 170.688 109.491C170.045 108.71 169.223 108.146 168.312 107.864C167.401 107.581 166.438 107.59 165.532 107.891Z" fill="#FFB6B6"/>
<path d="M79.9522 60.3351L79.8925 60.6039C78.7671 65.6798 77.3302 80.178 80.4092 84.0928C84.3632 89.1262 116.302 104.492 122.647 103.24C127.568 102.269 126.555 102.595 128.91 105.357C131.264 108.119 127.356 108.763 132.608 109.247C137.86 109.73 137.965 107.463 139.09 109.977C140.215 112.491 139.214 114.007 142.788 113.867C146.363 113.727 147.259 114.479 148.488 114.726C149.718 114.973 157.439 119.099 157.439 119.099C157.439 119.099 160.536 109.138 164.435 105.344C164.435 105.344 155.494 104.12 154.817 101.981C154.14 99.8428 154.693 97.9515 152.348 98.3385C150.003 98.7255 148.783 101.627 149.107 97.9734C149.431 94.3197 132.54 87.2071 132.54 87.2071C122.347 75.8927 101.404 68.0322 79.9522 60.3351Z" fill="#E7B900"/>
<path d="M34.2561 172.805L33.6028 155.719L24.8931 154.778L26.1539 172.814C25.5851 173.665 25.2379 174.677 25.1514 175.738C25.065 176.798 25.2426 177.865 25.6644 178.818C26.0862 179.771 26.7354 180.572 27.539 181.132C28.3427 181.692 29.2689 181.988 30.2136 181.986C31.1583 181.985 32.0839 181.687 32.8865 181.125C33.6891 180.564 34.3369 179.761 34.7569 178.807C35.1769 177.853 35.3525 176.786 35.264 175.725C35.1756 174.665 34.8265 173.654 34.2561 172.805Z" fill="#FFB6B6"/>
<path d="M43.3606 65.7325L43.1165 65.7649C40.8463 66.0668 38.6755 66.9881 36.7922 68.4488C34.9088 69.9096 33.3697 71.8658 32.308 74.1482C29.5349 80.1006 20.7619 120.417 22.91 125.949C24.9133 131.109 24.8304 129.84 23.3747 133.301C21.9189 136.762 19.9985 132.871 21.4596 138.579C22.9207 144.287 24.8384 143.593 23.1517 145.671C21.465 147.748 19.8534 147.23 21.2366 150.948C22.6198 154.667 22.3136 155.878 22.5446 157.262C22.7756 158.645 22.0906 168.247 22.0906 168.247C22.0906 168.247 31.4509 167.981 35.9793 170.745C35.9793 170.745 33.8252 160.886 35.3589 159.415C36.8925 157.943 38.6572 157.855 37.5049 155.521C36.3527 153.186 33.5137 152.929 36.6589 151.975C39.8041 151.021 39.7155 130.694 39.7155 130.694L43.3606 65.7325Z" fill="#E7B900"/>
<path d="M65.9539 44.6763C65.5866 44.7719 65.2193 44.8547 64.852 44.9184C63.7299 45.1262 62.5908 45.1924 61.4557 45.1159C58.4991 44.9369 55.6442 43.8382 53.2076 41.9416C50.771 40.045 48.8481 37.4246 47.652 34.371C46.4558 31.3175 46.0333 27.9501 46.4313 24.6423C46.8292 21.3346 48.032 18.2157 49.9064 15.6316C51.7807 13.0475 54.2533 11.0992 57.0499 10.0027C59.8465 8.90626 62.8579 8.70448 65.7501 9.41977C68.6422 10.1351 71.3021 11.7395 73.4347 14.0551C75.5674 16.3706 77.0895 19.3069 77.8322 22.5383C77.8661 22.6848 77.9 22.8249 77.9282 22.9715C78.8924 27.6398 78.1726 32.5487 75.9272 36.6188C73.6817 40.689 70.0944 43.5872 65.9539 44.6763Z" fill="#F5EBEB"/>
<path d="M51.0062 41.8249C48.7766 39.8578 48.5602 36.1082 46.6576 33.7446C43.4764 29.7927 41.9819 25.5411 43.6482 20.8584C45.1222 16.7168 44.8089 11.6257 47.9833 8.9598C46.4242 8.32354 46.0573 7.00221 47.4329 6.97781C48.3606 6.96137 51.8189 8.96017 50.1548 6.47019C48.4908 3.98022 51.6407 4.96307 51.4323 3.94384C51.224 2.92461 49.888 2.36009 49.2988 3.16801C51.18 0.683067 55.2881 1.21285 56.6229 4.11253C58.4979 0.944579 60.4882 -1.23527 63.3573 0.775107C66.1753 2.7496 66.1384 5.19035 69.1687 4.60378C70.5933 4.32803 70.7279 7.36227 71.7011 8.56709C72.6743 9.77191 74.0969 10.7044 75.5172 10.4018C76.9374 10.0992 78.0235 8.10376 77.2276 6.74348L80.5751 15.353L81.9243 13.4874C84.068 15.0624 83.3639 19.1722 81.206 20.7224C79.0482 22.2727 74.93 18.6895 73.7589 21.2543C71.913 25.2972 67.5827 23.2557 64.6087 20.3985C61.0024 16.9335 56.6495 27.4689 58.3867 32.4384C56.5842 30.443 53.2497 32.0989 52.3159 34.7452C51.3822 37.3915 52.0669 40.3729 52.7591 43.1119L51.0062 41.8249Z" fill="#19181C"/>
<path d="M273.742 101.311H256.779C256.339 101.31 255.917 101.113 255.606 100.762C255.295 100.411 255.12 99.9355 255.119 99.4393V80.5493C255.12 80.0531 255.295 79.5774 255.606 79.2265C255.917 78.8756 256.339 78.6783 256.779 78.6777H273.742C274.182 78.6783 274.604 78.8756 274.916 79.2265C275.227 79.5774 275.402 80.0531 275.402 80.5493V99.4393C275.402 99.9355 275.227 100.411 274.916 100.762C274.604 101.113 274.182 101.31 273.742 101.311Z" fill="#F2F2F2"/>
<path d="M276.566 102.903H259.603C259.163 102.902 258.741 102.705 258.43 102.354C258.119 102.003 257.944 101.527 257.943 101.031V82.1411C257.944 81.6449 258.119 81.1692 258.43 80.8183C258.741 80.4675 259.163 80.2701 259.603 80.2696H276.566C277.006 80.2701 277.428 80.4675 277.74 80.8183C278.051 81.1692 278.226 81.6449 278.226 82.1411V101.031C278.226 101.527 278.051 102.003 277.74 102.354C277.428 102.705 277.006 102.902 276.566 102.903Z" fill="#F2F2F2"/>
<path d="M257.135 79.2353C256.731 79.2353 256.345 79.416 256.059 79.7375C255.774 80.0591 255.614 80.4953 255.614 80.95V99.0385C255.614 99.4932 255.774 99.9294 256.059 100.251C256.345 100.573 256.731 100.753 257.135 100.753H267.507C269.47 100.753 271.352 99.8742 272.74 98.3096C274.128 96.745 274.908 94.6229 274.908 92.4102V80.95C274.908 80.4953 274.747 80.0591 274.462 79.7375C274.177 79.416 273.79 79.2353 273.387 79.2353H257.135Z" fill="white"/>
<path d="M222.585 113.136L222.364 113.013C209.492 105.839 195.568 105.846 179.795 113.033L179.372 111.851C195.37 104.562 209.528 104.528 222.644 111.748C241.102 103.83 252.967 90.4086 257.915 71.8528L258.997 72.2198C253.923 91.2516 241.749 104.985 222.814 113.038L222.585 113.136Z" fill="#F2F2F2"/>
<path d="M276.28 113.136L276.059 113.019C263.408 106.328 249.475 106.334 233.464 113.039L233.07 111.845C249.285 105.054 263.435 105.021 276.317 111.748C296.983 102.439 308.847 89.0417 311.584 71.9234L312.696 72.1492C309.875 89.792 297.7 103.548 276.508 113.034L276.28 113.136Z" fill="#F2F2F2"/>
<path d="M318.598 112.458L318.458 112.39C308.034 107.338 294.473 107.349 275.781 112.424L275.517 111.186C294.374 106.066 308.123 106.053 318.764 111.152C339.887 108.24 351.401 95.2102 353.961 71.3227L355.083 71.4758C352.446 96.0881 340.56 109.487 318.748 112.437L318.598 112.458Z" fill="#F2F2F2"/>
<path d="M263.217 74.8553C265.714 74.8553 267.738 72.5735 267.738 69.7588C267.738 66.944 265.714 64.6622 263.217 64.6622C260.72 64.6622 258.696 66.944 258.696 69.7588C258.696 72.5735 260.72 74.8553 263.217 74.8553Z" fill="#FFCC00"/>
<path d="M314.076 74.8553C316.572 74.8553 318.596 72.5735 318.596 69.7588C318.596 66.944 316.572 64.6622 314.076 64.6622C311.579 64.6622 309.555 66.944 309.555 69.7588C309.555 72.5735 311.579 74.8553 314.076 74.8553Z" fill="#FFCC00"/>
<path d="M354.762 74.2182C357.259 74.2182 359.283 71.9364 359.283 69.1217C359.283 66.307 357.259 64.0252 354.762 64.0252C352.266 64.0252 350.242 66.307 350.242 69.1217C350.242 71.9364 352.266 74.2182 354.762 74.2182Z" fill="#FFCC00"/>
<path d="M228.742 151.957H181.222C179.989 151.955 178.807 151.402 177.935 150.419C177.063 149.437 176.573 148.104 176.571 146.714V93.7953C176.573 92.4052 177.063 91.0725 177.935 90.0896C178.807 89.1067 179.989 88.5538 181.222 88.5522H228.742C229.975 88.5538 231.157 89.1067 232.029 90.0896C232.901 91.0725 233.391 92.4052 233.393 93.7953V146.714C233.391 148.104 232.901 149.437 232.029 150.419C231.157 151.402 229.975 151.955 228.742 151.957Z" fill="#E6E6E6"/>
<path d="M220.83 147.497H173.311C172.078 147.496 170.895 146.943 170.024 145.96C169.152 144.977 168.661 143.644 168.66 142.254V89.3358C168.661 87.9457 169.152 86.613 170.024 85.6301C170.895 84.6472 172.078 84.0943 173.311 84.0927H220.83C222.063 84.0943 223.246 84.6472 224.117 85.6301C224.989 86.613 225.48 87.9457 225.481 89.3358V142.254C225.48 143.644 224.989 144.977 224.117 145.96C223.246 146.943 222.063 147.496 220.83 147.497Z" fill="#E6E6E6"/>
<path d="M182.16 85.6549C178.947 85.6549 175.866 87.0938 173.594 89.6551C171.322 92.2165 170.046 95.6903 170.046 99.3126V141.132C170.046 141.762 170.156 142.387 170.37 142.97C170.584 143.553 170.898 144.082 171.294 144.528C171.689 144.974 172.159 145.328 172.676 145.569C173.193 145.811 173.747 145.935 174.307 145.935H203.364C206.086 145.935 208.782 145.331 211.297 144.156C213.813 142.981 216.098 141.26 218.023 139.09C219.948 136.919 221.475 134.343 222.517 131.507C223.559 128.671 224.095 125.632 224.095 122.563V90.4585C224.095 89.1845 223.647 87.9627 222.847 87.0619C222.048 86.161 220.965 85.6549 219.834 85.6549H182.16Z" fill="white"/>
<path d="M333.642 98.7626H316.679C316.239 98.762 315.817 98.5646 315.506 98.2138C315.195 97.8629 315.02 97.3872 315.019 96.891V78.001C315.02 77.5048 315.195 77.0291 315.506 76.6782C315.817 76.3274 316.239 76.13 316.679 76.1294H333.642C334.082 76.13 334.504 76.3274 334.816 76.6782C335.127 77.0291 335.302 77.5048 335.302 78.001V96.891C335.302 97.3872 335.127 97.8629 334.816 98.2138C334.504 98.5646 334.082 98.762 333.642 98.7626Z" fill="#F2F2F2"/>
<path d="M336.466 100.354H319.503C319.063 100.354 318.641 100.157 318.33 99.8057C318.019 99.4548 317.844 98.9791 317.843 98.4829V79.5929C317.844 79.0967 318.019 78.621 318.33 78.2701C318.641 77.9192 319.063 77.7219 319.503 77.7213H336.466C336.906 77.7219 337.328 77.9192 337.64 78.2701C337.951 78.621 338.126 79.0967 338.126 79.5929V98.4829C338.126 98.9791 337.951 99.4548 337.64 99.8057C337.328 100.157 336.906 100.354 336.466 100.354Z" fill="#F2F2F2"/>
<path d="M317.035 76.6871C316.632 76.6871 316.245 76.8677 315.959 77.1893C315.674 77.5109 315.514 77.947 315.514 78.4018V96.4902C315.514 96.945 315.674 97.3811 315.959 97.7027C316.245 98.0243 316.632 98.2049 317.035 98.2049H327.407C329.37 98.2049 331.252 97.3259 332.64 95.7613C334.028 94.1967 334.808 92.0746 334.808 89.8619V78.4018C334.808 77.947 334.647 77.5109 334.362 77.1893C334.077 76.8677 333.69 76.6871 333.287 76.6871H317.035Z" fill="white"/>
<path d="M2.97796e-06 365.242C-0.000260399 365.342 0.0169489 365.44 0.0506524 365.532C0.084356 365.624 0.133883 365.708 0.196384 365.779C0.258884 365.849 0.333128 365.905 0.414839 365.943C0.496549 365.981 0.584114 366 0.672501 366H143.805C143.983 366 144.155 365.92 144.281 365.778C144.407 365.636 144.478 365.443 144.478 365.242C144.478 365.041 144.407 364.848 144.281 364.706C144.155 364.564 143.983 364.484 143.805 364.484H0.672501C0.584115 364.483 0.496548 364.503 0.414839 364.541C0.33313 364.579 0.258892 364.635 0.196392 364.705C0.133892 364.776 0.0843657 364.859 0.050661 364.951C0.0169564 365.044 -0.000257399 365.142 2.97796e-06 365.242Z" fill="#CCCCCC"/>
<path d="M61.3035 44.3972L64.6997 44.1997C63.5776 44.4074 62.4385 44.4737 61.3035 44.3972Z" fill="#F2F2F2"/>
<path d="M81.5396 59.9033L80.9802 60.7061L79.477 62.8593L66.4968 81.468L47.6396 59.7059L48.3912 59.0306L52.3921 49.4427L72.9446 47.8501L79.0928 58.7821L81.5396 59.9033Z" fill="#711712"/>
<path d="M184.09 100.047C184.268 100.654 184.548 101.227 184.916 101.742L185.843 103.021C186.561 103.983 187.244 104.96 187.998 105.894C189.288 107.507 190.62 109.084 191.967 110.65C194.625 113.737 197.37 116.743 200.2 119.67C201.012 120.51 201.832 121.348 202.661 122.184C203.056 122.575 203.451 122.971 203.849 123.358C204.047 123.556 204.241 123.754 204.446 123.944C205.126 124.612 206.039 124.991 206.992 125C207.759 124.999 208.494 124.694 209.036 124.152C209.514 123.631 209.981 122.845 209.884 122.108C209.773 121.275 209.708 120.7 209.166 120.007C208.944 119.731 208.697 119.475 208.429 119.242C208.037 118.885 207.647 118.526 207.262 118.165C206.508 117.465 205.758 116.758 205.013 116.042C203.543 114.634 202.094 113.205 200.667 111.756C197.815 108.861 195.048 105.885 192.366 102.827C191.615 101.968 190.836 101.142 190.067 100.312C189.191 99.357 188.4 98.2938 187.269 97.6365C185.674 96.7098 183.533 98.2471 184.09 100.075V100.047Z" fill="#B3261E"/>
<path d="M190.232 122.816C191.378 121.056 192.592 119.343 193.731 117.575C194.87 115.808 196.062 114.08 197.323 112.385C197.93 111.559 198.523 110.726 199.119 109.903C199.417 109.504 199.719 109.106 200.024 108.71C200.329 108.315 199.697 109.127 199.931 108.833L200.171 108.524L200.656 107.906C201.959 106.268 203.312 104.668 204.715 103.107C206.293 101.354 207.93 99.6564 209.625 98.0136C210.732 96.936 210.785 94.9102 209.625 93.8434C209.066 93.3024 208.318 93 207.54 93C206.762 93 206.014 93.3024 205.455 93.8434C199.383 99.9871 194.146 106.904 189.88 114.415C189.291 115.474 188.713 116.53 188.228 117.647C187.696 118.869 187.184 120.097 186.691 121.333C186.331 122.227 187.01 123.279 187.811 123.617C188.243 123.797 188.725 123.816 189.169 123.67C189.614 123.524 189.991 123.224 190.232 122.823V122.816Z" fill="#B3261E"/>
<path d="M265 81C261.685 81 259 83.6855 259 87C259 90.3145 261.685 93 265 93C268.315 93 271 90.3145 271 87C271 83.6855 268.315 81 265 81ZM265 83.3226C266.176 83.3226 267.129 84.2758 267.129 85.4516C267.129 86.6274 266.176 87.5806 265 87.5806C263.824 87.5806 262.871 86.6274 262.871 85.4516C262.871 84.2758 263.824 83.3226 265 83.3226ZM265 91.6452C263.58 91.6452 262.307 91.0016 261.456 89.9952C261.91 89.1387 262.801 88.5484 263.839 88.5484C263.897 88.5484 263.955 88.5581 264.01 88.575C264.325 88.6766 264.654 88.7419 265 88.7419C265.346 88.7419 265.677 88.6766 265.99 88.575C266.045 88.5581 266.103 88.5484 266.161 88.5484C267.199 88.5484 268.09 89.1387 268.544 89.9952C267.693 91.0016 266.42 91.6452 265 91.6452Z" fill="#B9B6B6"/>
<path d="M325 79C321.685 79 319 81.6855 319 85C319 88.3145 321.685 91 325 91C328.315 91 331 88.3145 331 85C331 81.6855 328.315 79 325 79ZM325 81.3226C326.176 81.3226 327.129 82.2758 327.129 83.4516C327.129 84.6274 326.176 85.5806 325 85.5806C323.824 85.5806 322.871 84.6274 322.871 83.4516C322.871 82.2758 323.824 81.3226 325 81.3226ZM325 89.6452C323.58 89.6452 322.307 89.0016 321.456 87.9952C321.91 87.1387 322.801 86.5484 323.839 86.5484C323.897 86.5484 323.955 86.5581 324.01 86.575C324.325 86.6766 324.654 86.7419 325 86.7419C325.346 86.7419 325.677 86.6766 325.99 86.575C326.045 86.5581 326.103 86.5484 326.161 86.5484C327.199 86.5484 328.09 87.1387 328.544 87.9952C327.693 89.0016 326.42 89.6452 325 89.6452Z" fill="#B9B6B6"/>
<path d="M263.372 96.786C263.372 96.098 263.484 95.562 263.708 95.178C263.932 94.79 264.324 94.596 264.884 94.596C265.44 94.596 265.83 94.79 266.054 95.178C266.278 95.562 266.39 96.098 266.39 96.786C266.39 97.486 266.278 98.03 266.054 98.418C265.83 98.806 265.44 99 264.884 99C264.324 99 263.932 98.806 263.708 98.418C263.484 98.03 263.372 97.486 263.372 96.786ZM265.85 96.786C265.85 96.438 265.826 96.144 265.778 95.904C265.734 95.66 265.64 95.464 265.496 95.316C265.356 95.168 265.152 95.094 264.884 95.094C264.612 95.094 264.404 95.168 264.26 95.316C264.12 95.464 264.026 95.66 263.978 95.904C263.934 96.144 263.912 96.438 263.912 96.786C263.912 97.146 263.934 97.448 263.978 97.692C264.026 97.936 264.12 98.132 264.26 98.28C264.404 98.428 264.612 98.502 264.884 98.502C265.152 98.502 265.356 98.428 265.496 98.28C265.64 98.132 265.734 97.936 265.778 97.692C265.826 97.448 265.85 97.146 265.85 96.786Z" fill="#8B8B8B"/>
<path d="M323.372 94.786C323.372 94.098 323.484 93.562 323.708 93.178C323.932 92.79 324.324 92.596 324.884 92.596C325.44 92.596 325.83 92.79 326.054 93.178C326.278 93.562 326.39 94.098 326.39 94.786C326.39 95.486 326.278 96.03 326.054 96.418C325.83 96.806 325.44 97 324.884 97C324.324 97 323.932 96.806 323.708 96.418C323.484 96.03 323.372 95.486 323.372 94.786ZM325.85 94.786C325.85 94.438 325.826 94.144 325.778 93.904C325.734 93.66 325.64 93.464 325.496 93.316C325.356 93.168 325.152 93.094 324.884 93.094C324.612 93.094 324.404 93.168 324.26 93.316C324.12 93.464 324.026 93.66 323.978 93.904C323.934 94.144 323.912 94.438 323.912 94.786C323.912 95.146 323.934 95.448 323.978 95.692C324.026 95.936 324.12 96.132 324.26 96.28C324.404 96.428 324.612 96.502 324.884 96.502C325.152 96.502 325.356 96.428 325.496 96.28C325.64 96.132 325.734 95.936 325.778 95.692C325.826 95.448 325.85 95.146 325.85 94.786Z" fill="#8B8B8B"/>
<path d="M177.504 129.616V134H176.776V133.352C176.637 133.576 176.443 133.752 176.192 133.88C175.947 134.003 175.675 134.064 175.376 134.064C175.035 134.064 174.728 133.995 174.456 133.856C174.184 133.712 173.968 133.499 173.808 133.216C173.653 132.933 173.576 132.589 173.576 132.184V129.616H174.296V132.088C174.296 132.52 174.405 132.853 174.624 133.088C174.843 133.317 175.141 133.432 175.52 133.432C175.909 133.432 176.216 133.312 176.44 133.072C176.664 132.832 176.776 132.483 176.776 132.024V129.616H177.504ZM180.869 129.536C181.403 129.536 181.835 129.699 182.165 130.024C182.496 130.344 182.661 130.808 182.661 131.416V134H181.941V131.52C181.941 131.083 181.832 130.749 181.613 130.52C181.395 130.285 181.096 130.168 180.717 130.168C180.333 130.168 180.027 130.288 179.797 130.528C179.573 130.768 179.461 131.117 179.461 131.576V134H178.733V129.616H179.461V130.24C179.605 130.016 179.8 129.843 180.045 129.72C180.296 129.597 180.571 129.536 180.869 129.536ZM183.578 131.792C183.578 131.344 183.669 130.952 183.85 130.616C184.032 130.275 184.28 130.011 184.594 129.824C184.914 129.637 185.269 129.544 185.658 129.544C186.042 129.544 186.376 129.627 186.658 129.792C186.941 129.957 187.152 130.165 187.29 130.416V129.616H188.026V134H187.29V133.184C187.146 133.44 186.93 133.653 186.642 133.824C186.36 133.989 186.029 134.072 185.65 134.072C185.261 134.072 184.909 133.976 184.594 133.784C184.28 133.592 184.032 133.323 183.85 132.976C183.669 132.629 183.578 132.235 183.578 131.792ZM187.29 131.8C187.29 131.469 187.224 131.181 187.09 130.936C186.957 130.691 186.776 130.504 186.546 130.376C186.322 130.243 186.074 130.176 185.802 130.176C185.53 130.176 185.282 130.24 185.058 130.368C184.834 130.496 184.656 130.683 184.522 130.928C184.389 131.173 184.322 131.461 184.322 131.792C184.322 132.128 184.389 132.421 184.522 132.672C184.656 132.917 184.834 133.107 185.058 133.24C185.282 133.368 185.53 133.432 185.802 133.432C186.074 133.432 186.322 133.368 186.546 133.24C186.776 133.107 186.957 132.917 187.09 132.672C187.224 132.421 187.29 132.131 187.29 131.8ZM190.889 133.328L192.249 129.616H193.025L191.305 134H190.457L188.737 129.616H189.521L190.889 133.328ZM193.469 131.792C193.469 131.344 193.56 130.952 193.741 130.616C193.922 130.275 194.17 130.011 194.485 129.824C194.805 129.637 195.16 129.544 195.549 129.544C195.933 129.544 196.266 129.627 196.549 129.792C196.832 129.957 197.042 130.165 197.181 130.416V129.616H197.917V134H197.181V133.184C197.037 133.44 196.821 133.653 196.533 133.824C196.25 133.989 195.92 134.072 195.541 134.072C195.152 134.072 194.8 133.976 194.485 133.784C194.17 133.592 193.922 133.323 193.741 132.976C193.56 132.629 193.469 132.235 193.469 131.792ZM197.181 131.8C197.181 131.469 197.114 131.181 196.981 130.936C196.848 130.691 196.666 130.504 196.437 130.376C196.213 130.243 195.965 130.176 195.693 130.176C195.421 130.176 195.173 130.24 194.949 130.368C194.725 130.496 194.546 130.683 194.413 130.928C194.28 131.173 194.213 131.461 194.213 131.792C194.213 132.128 194.28 132.421 194.413 132.672C194.546 132.917 194.725 133.107 194.949 133.24C195.173 133.368 195.421 133.432 195.693 133.432C195.965 133.432 196.213 133.368 196.437 133.24C196.666 133.107 196.848 132.917 196.981 132.672C197.114 132.421 197.181 132.131 197.181 131.8ZM199.523 128.904C199.385 128.904 199.267 128.856 199.171 128.76C199.075 128.664 199.027 128.547 199.027 128.408C199.027 128.269 199.075 128.152 199.171 128.056C199.267 127.96 199.385 127.912 199.523 127.912C199.657 127.912 199.769 127.96 199.859 128.056C199.955 128.152 200.003 128.269 200.003 128.408C200.003 128.547 199.955 128.664 199.859 128.76C199.769 128.856 199.657 128.904 199.523 128.904ZM199.875 129.616V134H199.147V129.616H199.875ZM201.844 128.08V134H201.116V128.08H201.844ZM202.813 131.792C202.813 131.344 202.903 130.952 203.085 130.616C203.266 130.275 203.514 130.011 203.829 129.824C204.149 129.637 204.503 129.544 204.893 129.544C205.277 129.544 205.61 129.627 205.893 129.792C206.175 129.957 206.386 130.165 206.525 130.416V129.616H207.261V134H206.525V133.184C206.381 133.44 206.165 133.653 205.877 133.824C205.594 133.989 205.263 134.072 204.885 134.072C204.495 134.072 204.143 133.976 203.829 133.784C203.514 133.592 203.266 133.323 203.085 132.976C202.903 132.629 202.813 132.235 202.813 131.792ZM206.525 131.8C206.525 131.469 206.458 131.181 206.325 130.936C206.191 130.691 206.01 130.504 205.781 130.376C205.557 130.243 205.309 130.176 205.037 130.176C204.765 130.176 204.517 130.24 204.293 130.368C204.069 130.496 203.89 130.683 203.757 130.928C203.623 131.173 203.557 131.461 203.557 131.792C203.557 132.128 203.623 132.421 203.757 132.672C203.89 132.917 204.069 133.107 204.293 133.24C204.517 133.368 204.765 133.432 205.037 133.432C205.309 133.432 205.557 133.368 205.781 133.24C206.01 133.107 206.191 132.917 206.325 132.672C206.458 132.421 206.525 132.131 206.525 131.8ZM209.219 130.432C209.368 130.171 209.587 129.957 209.875 129.792C210.163 129.627 210.491 129.544 210.859 129.544C211.254 129.544 211.608 129.637 211.923 129.824C212.238 130.011 212.486 130.275 212.667 130.616C212.848 130.952 212.939 131.344 212.939 131.792C212.939 132.235 212.848 132.629 212.667 132.976C212.486 133.323 212.235 133.592 211.915 133.784C211.6 133.976 211.248 134.072 210.859 134.072C210.48 134.072 210.147 133.989 209.859 133.824C209.576 133.659 209.363 133.448 209.219 133.192V134H208.491V128.08H209.219V130.432ZM212.195 131.792C212.195 131.461 212.128 131.173 211.995 130.928C211.862 130.683 211.68 130.496 211.451 130.368C211.227 130.24 210.979 130.176 210.707 130.176C210.44 130.176 210.192 130.243 209.963 130.376C209.739 130.504 209.558 130.693 209.419 130.944C209.286 131.189 209.219 131.475 209.219 131.8C209.219 132.131 209.286 132.421 209.419 132.672C209.558 132.917 209.739 133.107 209.963 133.24C210.192 133.368 210.44 133.432 210.707 133.432C210.979 133.432 211.227 133.368 211.451 133.24C211.68 133.107 211.862 132.917 211.995 132.672C212.128 132.421 212.195 132.128 212.195 131.792ZM214.625 128.08V134H213.897V128.08H214.625ZM219.866 131.64C219.866 131.779 219.858 131.925 219.842 132.08H216.338C216.365 132.512 216.511 132.851 216.778 133.096C217.05 133.336 217.378 133.456 217.762 133.456C218.077 133.456 218.338 133.384 218.546 133.24C218.759 133.091 218.909 132.893 218.994 132.648H219.778C219.661 133.069 219.426 133.413 219.074 133.68C218.722 133.941 218.285 134.072 217.762 134.072C217.346 134.072 216.973 133.979 216.642 133.792C216.317 133.605 216.061 133.341 215.874 133C215.687 132.653 215.594 132.253 215.594 131.8C215.594 131.347 215.685 130.949 215.866 130.608C216.047 130.267 216.301 130.005 216.626 129.824C216.957 129.637 217.335 129.544 217.762 129.544C218.178 129.544 218.546 129.635 218.866 129.816C219.186 129.997 219.431 130.248 219.602 130.568C219.778 130.883 219.866 131.24 219.866 131.64ZM219.114 131.488C219.114 131.211 219.053 130.973 218.93 130.776C218.807 130.573 218.639 130.421 218.426 130.32C218.218 130.213 217.986 130.16 217.73 130.16C217.362 130.16 217.047 130.277 216.786 130.512C216.53 130.747 216.383 131.072 216.346 131.488H219.114Z" fill="#ADADAD"/>
</g>
<defs>
<clipPath id="clip0_4_149">
<rect width="461" height="366" fill="white"/>
</clipPath>
</defs>
</svg>
