<svg width="100" height="94" viewBox="0 0 100 94" fill="none" xmlns="http://www.w3.org/2000/svg">
<path d="M20.1636 19.6286C19.5681 19.6705 19.0127 19.9439 18.6162 20.3902C18.2197 20.8365 18.0136 21.4203 18.0422 22.0166C18.0707 22.6129 18.3315 23.1743 18.7688 23.5808C19.2061 23.9872 19.7852 24.2062 20.382 24.1911H31.8016V30.2997C31.6426 30.7723 31.6426 31.284 31.8016 31.7566V42.6104C24.0848 43.7252 18.1096 50.3921 18.1096 58.4098C18.1096 67.2014 25.2851 74.3741 34.0739 74.3741C40.416 74.3741 45.9024 70.6277 48.4743 65.2447H56.8775C56.8775 70.2566 60.9735 74.3741 65.9847 74.3741C70.2001 74.3741 73.753 71.4474 74.7844 67.5393H79.6766C80.2823 67.5393 80.8631 67.2987 81.2913 66.8705C81.7195 66.4422 81.9601 65.8614 81.9601 65.2558C81.9601 64.6502 81.7195 64.0694 81.2913 63.6411C80.8631 63.2129 80.2823 62.9723 79.6766 62.9723H74.7889C73.8903 59.5388 71.0458 56.8821 67.5085 56.2756L61.2039 43.6931C61.0153 43.314 60.725 42.9949 60.3654 42.7714C60.0058 42.5479 59.5911 42.4289 59.1677 42.4277H36.3641V33.3205H50.0382C50.6438 33.3205 51.2246 33.08 51.6529 32.6517C52.0811 32.2235 52.3217 31.6427 52.3217 31.0371C52.3217 30.4314 52.0811 29.8506 51.6529 29.4224C51.2246 28.9942 50.6438 28.7536 50.0382 28.7536H36.3641V21.9009C36.3617 21.2959 36.119 20.7166 35.6896 20.2905C35.2601 19.8644 34.6789 19.6263 34.0739 19.6286H20.382C20.3092 19.6251 20.2364 19.6251 20.1636 19.6286ZM45.2039 46.9902H57.7686L62.6653 56.7746C60.7546 57.533 59.1806 58.9233 58.1518 60.6822H49.86C49.9674 59.9372 50.0382 59.1836 50.0382 58.4098C50.0382 53.9428 48.1793 49.8971 45.2039 46.9902ZM33.9714 46.9947C34.0427 46.998 34.1141 46.998 34.1853 46.9947C40.4547 47.0546 45.4757 52.1202 45.4757 58.4098C45.4757 64.737 40.3956 69.8116 34.0739 69.8116C27.7522 69.8116 22.6766 64.737 22.6766 58.4098C22.6766 52.1173 27.6981 47.0501 33.9714 46.9947ZM34.0561 49.2893C29.0905 49.2881 24.9299 53.4504 24.9311 58.4187C24.9299 63.3871 29.0905 67.5539 34.0561 67.5527C39.0217 67.5539 43.1823 63.3871 43.1811 58.4187C43.1823 53.4504 39.0217 49.2881 34.0561 49.2893ZM34.0561 53.8652C36.2547 53.8646 38.6102 56.219 38.6097 58.4187C38.6102 60.6185 36.2547 62.9773 34.0561 62.9768C31.8575 62.9773 29.502 60.6185 29.5025 58.4187C29.502 56.219 31.8575 53.8646 34.0561 53.8652ZM65.5882 60.7223C65.8872 60.7877 66.1963 60.7922 66.4971 60.7356C68.6119 60.9688 70.253 62.5924 70.4982 64.7055C70.4107 65.0627 70.4107 65.4356 70.4982 65.7927C70.2305 68.073 68.3417 69.8116 65.9847 69.8116C63.4406 69.8116 61.44 67.7922 61.44 65.2447C61.44 62.8341 63.2399 60.9233 65.5882 60.7223ZM65.9847 62.9723C64.7383 62.9723 63.7124 63.9987 63.7124 65.2447C63.7124 66.4906 64.7383 67.5393 65.9847 67.5393C67.2311 67.5393 68.2749 66.4906 68.2749 65.2447C68.2749 63.9987 67.2311 62.9723 65.9847 62.9723Z" fill="#7C7C7C"/>
</svg>
