<svg width="94" height="68" viewBox="0 0 94 68" fill="none" xmlns="http://www.w3.org/2000/svg">
<path d="M92.9001 36L84.6001 28.6L71.9001 11.2C71.3001 10.4 70.4001 10 69.5001 10H62.9001L60.5001 2.2C60.1001 0.900001 59.0001 0 57.6001 0H50.1001C48.7001 0 47.4001 1 47.2001 2.4L45.7001 10H3.6001C1.9001 10 0.600098 11.3 0.600098 13L0.100098 55.3C0.100098 57 1.4001 58.3 3.1001 58.3H10.9001C12.5001 64.6 18.8001 68.5 25.2001 67C29.5001 66 32.8001 62.6 33.9001 58.3H55.2001C56.8001 64.6 63.1001 68.5 69.5001 67C73.8001 66 77.1001 62.6 78.2001 58.3H90.8001C92.5001 58.3 93.8001 57 93.8001 55.3V38.2C93.9001 37.3 93.4001 36.5 92.9001 36ZM22.4001 61.3C19.2001 61.3 16.6001 58.7 16.6001 55.5C16.6001 52.3 19.2001 49.7 22.4001 49.7C25.6001 49.7 28.2001 52.3 28.2001 55.5C28.2001 58.7 25.6001 61.3 22.4001 61.3ZM37.1001 34H33.9001V37.2C33.9001 38.9 32.6001 40.2 30.9001 40.2C29.2001 40.2 27.9001 38.9 27.9001 37.2V34H24.7001C23.0001 34 21.7001 32.7 21.7001 31C21.7001 29.3 23.0001 28 24.7001 28H27.9001V24.8C27.9001 23.1 29.2001 21.8 30.9001 21.8C32.6001 21.8 33.9001 23.1 33.9001 24.8V28H37.1001C38.8001 28 40.1001 29.3 40.1001 31C40.1001 32.7 38.7001 34 37.1001 34ZM66.6001 61.3C63.4001 61.3 60.8001 58.7 60.8001 55.5C60.8001 52.3 63.4001 49.7 66.6001 49.7C69.8001 49.7 72.4001 52.3 72.4001 55.5C72.4001 58.7 69.9001 61.3 66.6001 61.3ZM57.1001 27.6V16H67.9001L76.4001 27.6H57.1001Z" fill="black"/>
<path d="M47.5 1.5L48 0.5L48.5 0H49.5H50.5H53.5H57.5H58.5L59.5 0.5L60 1L60.5 2L63 10H45.5V9.5L46 8L46.5 5.5L47 2.5L47.5 1.5Z" fill="#0D8419"/>
</svg>
